<mxfile host="app.diagrams.net" modified="2021-05-18T02:27:10.225Z" agent="5.0 (Windows NT 10.0; Win64; x64) AppleWebKit/537.36 (KHTML, like Gecko) Chrome/90.0.4430.212 Safari/537.36" etag="8atsFJFgts0_R3QSC_7s" version="14.6.13" type="github">
  <diagram id="S2sxaSUKV-EeUd9-0h2x" name="Page-1">
    <mxGraphModel dx="1792" dy="1768" grid="1" gridSize="10" guides="1" tooltips="1" connect="1" arrows="1" fold="1" page="1" pageScale="1" pageWidth="827" pageHeight="1169" math="0" shadow="0">
      <root>
        <mxCell id="0" />
        <mxCell id="1" parent="0" />
        <mxCell id="fYUXEFIVG2v1XULAEbU8-11" value="" style="edgeStyle=orthogonalEdgeStyle;rounded=0;orthogonalLoop=1;jettySize=auto;html=1;" parent="1" source="fYUXEFIVG2v1XULAEbU8-1" target="fYUXEFIVG2v1XULAEbU8-10" edge="1">
          <mxGeometry relative="1" as="geometry" />
        </mxCell>
        <mxCell id="fYUXEFIVG2v1XULAEbU8-1" value="&lt;span style=&quot;color: rgb(50 , 50 , 50) ; font-size: 13px ; background-color: rgba(255 , 255 , 255 , 0.01)&quot;&gt;查询企业信息&lt;/span&gt;" style="rounded=1;whiteSpace=wrap;html=1;" parent="1" vertex="1">
          <mxGeometry x="-490" y="-840" width="120" height="40" as="geometry" />
        </mxCell>
        <mxCell id="fYUXEFIVG2v1XULAEbU8-13" value="" style="edgeStyle=orthogonalEdgeStyle;rounded=0;orthogonalLoop=1;jettySize=auto;html=1;entryX=0.5;entryY=0;entryDx=0;entryDy=0;" parent="1" source="fYUXEFIVG2v1XULAEbU8-10" target="fYUXEFIVG2v1XULAEbU8-16" edge="1">
          <mxGeometry relative="1" as="geometry">
            <mxPoint x="-430" y="-590" as="targetPoint" />
            <Array as="points" />
          </mxGeometry>
        </mxCell>
        <mxCell id="fYUXEFIVG2v1XULAEbU8-26" value="&lt;span style=&quot;font-size: 12px ; background-color: rgb(216 , 214 , 210)&quot;&gt;选择企业基础信息&lt;/span&gt;" style="edgeLabel;html=1;align=center;verticalAlign=middle;resizable=0;points=[];" parent="fYUXEFIVG2v1XULAEbU8-13" vertex="1" connectable="0">
          <mxGeometry x="-0.2667" y="1" relative="1" as="geometry">
            <mxPoint as="offset" />
          </mxGeometry>
        </mxCell>
        <mxCell id="fYUXEFIVG2v1XULAEbU8-76" style="edgeStyle=orthogonalEdgeStyle;rounded=0;orthogonalLoop=1;jettySize=auto;html=1;exitX=0;exitY=0.5;exitDx=0;exitDy=0;entryX=1;entryY=0.5;entryDx=0;entryDy=0;entryPerimeter=0;shape=link;" parent="1" source="fYUXEFIVG2v1XULAEbU8-10" target="fYUXEFIVG2v1XULAEbU8-71" edge="1">
          <mxGeometry relative="1" as="geometry" />
        </mxCell>
        <mxCell id="fYUXEFIVG2v1XULAEbU8-10" value="企业信息列表" style="whiteSpace=wrap;html=1;rounded=1;" parent="1" vertex="1">
          <mxGeometry x="-490" y="-730" width="120" height="60" as="geometry" />
        </mxCell>
        <mxCell id="fYUXEFIVG2v1XULAEbU8-21" value="" style="edgeStyle=orthogonalEdgeStyle;rounded=0;orthogonalLoop=1;jettySize=auto;html=1;" parent="1" source="fYUXEFIVG2v1XULAEbU8-16" target="fYUXEFIVG2v1XULAEbU8-20" edge="1">
          <mxGeometry relative="1" as="geometry" />
        </mxCell>
        <mxCell id="fYUXEFIVG2v1XULAEbU8-22" value="是" style="edgeLabel;html=1;align=center;verticalAlign=middle;resizable=0;points=[];" parent="fYUXEFIVG2v1XULAEbU8-21" vertex="1" connectable="0">
          <mxGeometry x="-0.2254" y="1" relative="1" as="geometry">
            <mxPoint as="offset" />
          </mxGeometry>
        </mxCell>
        <mxCell id="fYUXEFIVG2v1XULAEbU8-24" value="" style="edgeStyle=orthogonalEdgeStyle;rounded=0;orthogonalLoop=1;jettySize=auto;html=1;" parent="1" source="fYUXEFIVG2v1XULAEbU8-16" target="fYUXEFIVG2v1XULAEbU8-23" edge="1">
          <mxGeometry relative="1" as="geometry" />
        </mxCell>
        <mxCell id="fYUXEFIVG2v1XULAEbU8-25" value="否" style="edgeLabel;html=1;align=center;verticalAlign=middle;resizable=0;points=[];" parent="fYUXEFIVG2v1XULAEbU8-24" vertex="1" connectable="0">
          <mxGeometry x="-0.2476" y="-1" relative="1" as="geometry">
            <mxPoint as="offset" />
          </mxGeometry>
        </mxCell>
        <mxCell id="fYUXEFIVG2v1XULAEbU8-16" value="是否登录" style="rhombus;whiteSpace=wrap;html=1;rounded=1;" parent="1" vertex="1">
          <mxGeometry x="-470" y="-600" width="80" height="80" as="geometry" />
        </mxCell>
        <mxCell id="fYUXEFIVG2v1XULAEbU8-30" value="" style="edgeStyle=orthogonalEdgeStyle;rounded=0;orthogonalLoop=1;jettySize=auto;html=1;" parent="1" source="fYUXEFIVG2v1XULAEbU8-20" target="fYUXEFIVG2v1XULAEbU8-29" edge="1">
          <mxGeometry relative="1" as="geometry" />
        </mxCell>
        <mxCell id="fYUXEFIVG2v1XULAEbU8-31" value="点击企业详情" style="edgeLabel;html=1;align=center;verticalAlign=middle;resizable=0;points=[];" parent="fYUXEFIVG2v1XULAEbU8-30" vertex="1" connectable="0">
          <mxGeometry x="-0.1846" y="-1" relative="1" as="geometry">
            <mxPoint as="offset" />
          </mxGeometry>
        </mxCell>
        <mxCell id="fYUXEFIVG2v1XULAEbU8-20" value="企业基础信息" style="rounded=1;whiteSpace=wrap;html=1;" parent="1" vertex="1">
          <mxGeometry x="-490" y="-460" width="120" height="60" as="geometry" />
        </mxCell>
        <mxCell id="fYUXEFIVG2v1XULAEbU8-23" value="企业基础信息（毛玻璃）" style="rounded=1;whiteSpace=wrap;html=1;" parent="1" vertex="1">
          <mxGeometry x="-300" y="-460" width="120" height="60" as="geometry" />
        </mxCell>
        <mxCell id="fYUXEFIVG2v1XULAEbU8-33" value="" style="edgeStyle=orthogonalEdgeStyle;rounded=0;orthogonalLoop=1;jettySize=auto;html=1;" parent="1" source="fYUXEFIVG2v1XULAEbU8-29" target="fYUXEFIVG2v1XULAEbU8-32" edge="1">
          <mxGeometry relative="1" as="geometry" />
        </mxCell>
        <mxCell id="fYUXEFIVG2v1XULAEbU8-36" value="是" style="edgeLabel;html=1;align=center;verticalAlign=middle;resizable=0;points=[];" parent="fYUXEFIVG2v1XULAEbU8-33" vertex="1" connectable="0">
          <mxGeometry x="-0.2167" y="2" relative="1" as="geometry">
            <mxPoint as="offset" />
          </mxGeometry>
        </mxCell>
        <mxCell id="fYUXEFIVG2v1XULAEbU8-35" value="" style="edgeStyle=orthogonalEdgeStyle;rounded=0;orthogonalLoop=1;jettySize=auto;html=1;" parent="1" source="fYUXEFIVG2v1XULAEbU8-29" target="fYUXEFIVG2v1XULAEbU8-34" edge="1">
          <mxGeometry relative="1" as="geometry" />
        </mxCell>
        <mxCell id="fYUXEFIVG2v1XULAEbU8-37" value="否" style="edgeLabel;html=1;align=center;verticalAlign=middle;resizable=0;points=[];" parent="fYUXEFIVG2v1XULAEbU8-35" vertex="1" connectable="0">
          <mxGeometry x="-0.1857" y="2" relative="1" as="geometry">
            <mxPoint as="offset" />
          </mxGeometry>
        </mxCell>
        <mxCell id="fYUXEFIVG2v1XULAEbU8-40" value="" style="edgeStyle=orthogonalEdgeStyle;rounded=0;orthogonalLoop=1;jettySize=auto;html=1;" parent="1" source="fYUXEFIVG2v1XULAEbU8-29" target="fYUXEFIVG2v1XULAEbU8-39" edge="1">
          <mxGeometry relative="1" as="geometry">
            <Array as="points">
              <mxPoint x="-430" y="-160" />
              <mxPoint x="-280" y="-160" />
            </Array>
          </mxGeometry>
        </mxCell>
        <mxCell id="fYUXEFIVG2v1XULAEbU8-29" value="是否购买报告" style="rhombus;whiteSpace=wrap;html=1;rounded=1;" parent="1" vertex="1">
          <mxGeometry x="-470" y="-270" width="80" height="80" as="geometry" />
        </mxCell>
        <mxCell id="fYUXEFIVG2v1XULAEbU8-44" value="" style="edgeStyle=orthogonalEdgeStyle;rounded=0;orthogonalLoop=1;jettySize=auto;html=1;" parent="1" source="fYUXEFIVG2v1XULAEbU8-32" target="fYUXEFIVG2v1XULAEbU8-43" edge="1">
          <mxGeometry relative="1" as="geometry" />
        </mxCell>
        <mxCell id="fYUXEFIVG2v1XULAEbU8-80" style="edgeStyle=orthogonalEdgeStyle;shape=link;rounded=0;orthogonalLoop=1;jettySize=auto;html=1;exitX=0;exitY=0.75;exitDx=0;exitDy=0;entryX=1;entryY=0.5;entryDx=0;entryDy=0;entryPerimeter=0;" parent="1" source="fYUXEFIVG2v1XULAEbU8-32" target="fYUXEFIVG2v1XULAEbU8-74" edge="1">
          <mxGeometry relative="1" as="geometry" />
        </mxCell>
        <mxCell id="fYUXEFIVG2v1XULAEbU8-86" value="国际" style="edgeLabel;html=1;align=center;verticalAlign=middle;resizable=0;points=[];" parent="fYUXEFIVG2v1XULAEbU8-80" vertex="1" connectable="0">
          <mxGeometry x="0.3555" y="1" relative="1" as="geometry">
            <mxPoint as="offset" />
          </mxGeometry>
        </mxCell>
        <mxCell id="fYUXEFIVG2v1XULAEbU8-84" style="edgeStyle=orthogonalEdgeStyle;shape=link;rounded=0;orthogonalLoop=1;jettySize=auto;html=1;exitX=0;exitY=0.25;exitDx=0;exitDy=0;entryX=1;entryY=0.5;entryDx=0;entryDy=0;entryPerimeter=0;" parent="1" source="fYUXEFIVG2v1XULAEbU8-32" target="fYUXEFIVG2v1XULAEbU8-73" edge="1">
          <mxGeometry relative="1" as="geometry" />
        </mxCell>
        <mxCell id="fYUXEFIVG2v1XULAEbU8-85" value="国内" style="edgeLabel;html=1;align=center;verticalAlign=middle;resizable=0;points=[];" parent="fYUXEFIVG2v1XULAEbU8-84" vertex="1" connectable="0">
          <mxGeometry x="0.3252" y="6" relative="1" as="geometry">
            <mxPoint as="offset" />
          </mxGeometry>
        </mxCell>
        <mxCell id="fYUXEFIVG2v1XULAEbU8-32" value="企业详细信息" style="whiteSpace=wrap;html=1;rounded=1;" parent="1" vertex="1">
          <mxGeometry x="-490" y="-140" width="120" height="60" as="geometry" />
        </mxCell>
        <mxCell id="fYUXEFIVG2v1XULAEbU8-34" value="&lt;span style=&quot;color: rgb(50 , 50 , 50) ; font-size: 13px ; background-color: rgba(255 , 255 , 255 , 0.01)&quot;&gt;企业详情信息（毛玻璃）&lt;/span&gt;" style="whiteSpace=wrap;html=1;rounded=1;" parent="1" vertex="1">
          <mxGeometry x="-270" y="-260" width="120" height="60" as="geometry" />
        </mxCell>
        <mxCell id="fYUXEFIVG2v1XULAEbU8-39" value="&lt;span style=&quot;color: rgb(50 , 50 , 50) ; font-size: 13px ; background-color: rgba(255 , 255 , 255 , 0.01)&quot;&gt;发送请求到icpm&lt;/span&gt;" style="rounded=1;whiteSpace=wrap;html=1;" parent="1" vertex="1">
          <mxGeometry x="-340" y="-140" width="120" height="60" as="geometry" />
        </mxCell>
        <mxCell id="fYUXEFIVG2v1XULAEbU8-46" value="" style="edgeStyle=orthogonalEdgeStyle;rounded=0;orthogonalLoop=1;jettySize=auto;html=1;" parent="1" source="fYUXEFIVG2v1XULAEbU8-43" target="fYUXEFIVG2v1XULAEbU8-45" edge="1">
          <mxGeometry relative="1" as="geometry" />
        </mxCell>
        <mxCell id="fYUXEFIVG2v1XULAEbU8-47" value="点击跳转" style="edgeLabel;html=1;align=center;verticalAlign=middle;resizable=0;points=[];" parent="fYUXEFIVG2v1XULAEbU8-46" vertex="1" connectable="0">
          <mxGeometry x="-0.2029" y="1" relative="1" as="geometry">
            <mxPoint as="offset" />
          </mxGeometry>
        </mxCell>
        <mxCell id="fYUXEFIVG2v1XULAEbU8-43" value="股东模块" style="shape=process;whiteSpace=wrap;html=1;backgroundOutline=1;rounded=1;" parent="1" vertex="1">
          <mxGeometry x="-490" width="120" height="60" as="geometry" />
        </mxCell>
        <mxCell id="fYUXEFIVG2v1XULAEbU8-49" value="" style="edgeStyle=orthogonalEdgeStyle;rounded=0;orthogonalLoop=1;jettySize=auto;html=1;" parent="1" source="fYUXEFIVG2v1XULAEbU8-45" target="fYUXEFIVG2v1XULAEbU8-58" edge="1">
          <mxGeometry relative="1" as="geometry">
            <mxPoint x="-430" y="280" as="targetPoint" />
            <Array as="points">
              <mxPoint x="-430" y="270" />
              <mxPoint x="-430" y="270" />
            </Array>
          </mxGeometry>
        </mxCell>
        <mxCell id="fYUXEFIVG2v1XULAEbU8-50" value="选择股东" style="edgeLabel;html=1;align=center;verticalAlign=middle;resizable=0;points=[];" parent="fYUXEFIVG2v1XULAEbU8-49" vertex="1" connectable="0">
          <mxGeometry x="-0.3592" y="2" relative="1" as="geometry">
            <mxPoint as="offset" />
          </mxGeometry>
        </mxCell>
        <mxCell id="fYUXEFIVG2v1XULAEbU8-83" style="edgeStyle=orthogonalEdgeStyle;shape=link;rounded=0;orthogonalLoop=1;jettySize=auto;html=1;entryX=1;entryY=0.5;entryDx=0;entryDy=0;entryPerimeter=0;" parent="1" target="fYUXEFIVG2v1XULAEbU8-75" edge="1">
          <mxGeometry relative="1" as="geometry">
            <mxPoint x="-560" y="306" as="sourcePoint" />
          </mxGeometry>
        </mxCell>
        <mxCell id="fYUXEFIVG2v1XULAEbU8-87" value="国际" style="edgeLabel;html=1;align=center;verticalAlign=middle;resizable=0;points=[];" parent="fYUXEFIVG2v1XULAEbU8-83" vertex="1" connectable="0">
          <mxGeometry x="0.5257" y="3" relative="1" as="geometry">
            <mxPoint as="offset" />
          </mxGeometry>
        </mxCell>
        <mxCell id="fYUXEFIVG2v1XULAEbU8-89" style="edgeStyle=orthogonalEdgeStyle;shape=link;rounded=0;orthogonalLoop=1;jettySize=auto;html=1;entryX=0;entryY=0.5;entryDx=0;entryDy=0;entryPerimeter=0;width=-5;exitX=0.002;exitY=0.353;exitDx=0;exitDy=0;exitPerimeter=0;" parent="1" source="fYUXEFIVG2v1XULAEbU8-58" target="fYUXEFIVG2v1XULAEbU8-73" edge="1">
          <mxGeometry relative="1" as="geometry">
            <mxPoint x="-570" y="340" as="sourcePoint" />
          </mxGeometry>
        </mxCell>
        <mxCell id="fYUXEFIVG2v1XULAEbU8-90" value="Text" style="edgeLabel;html=1;align=center;verticalAlign=middle;resizable=0;points=[];" parent="fYUXEFIVG2v1XULAEbU8-89" vertex="1" connectable="0">
          <mxGeometry x="-0.5048" y="3" relative="1" as="geometry">
            <mxPoint as="offset" />
          </mxGeometry>
        </mxCell>
        <mxCell id="fYUXEFIVG2v1XULAEbU8-95" value="国内" style="edgeLabel;html=1;align=center;verticalAlign=middle;resizable=0;points=[];" parent="fYUXEFIVG2v1XULAEbU8-89" vertex="1" connectable="0">
          <mxGeometry x="-0.5064" y="5" relative="1" as="geometry">
            <mxPoint as="offset" />
          </mxGeometry>
        </mxCell>
        <mxCell id="fYUXEFIVG2v1XULAEbU8-45" value="股东列表" style="shape=parallelogram;perimeter=parallelogramPerimeter;whiteSpace=wrap;html=1;fixedSize=1;rounded=1;" parent="1" vertex="1">
          <mxGeometry x="-490" y="160" width="120" height="60" as="geometry" />
        </mxCell>
        <mxCell id="fYUXEFIVG2v1XULAEbU8-48" value="股东" style="whiteSpace=wrap;html=1;rounded=1;" parent="1" vertex="1">
          <mxGeometry x="-540" y="390" width="120" height="60" as="geometry" />
        </mxCell>
        <mxCell id="fYUXEFIVG2v1XULAEbU8-51" value="对外投资" style="whiteSpace=wrap;html=1;rounded=1;" parent="1" vertex="1">
          <mxGeometry x="-410" y="390" width="120" height="60" as="geometry" />
        </mxCell>
        <mxCell id="fYUXEFIVG2v1XULAEbU8-53" value="董监高" style="whiteSpace=wrap;html=1;rounded=1;" parent="1" vertex="1">
          <mxGeometry x="-410" y="320" width="120" height="60" as="geometry" />
        </mxCell>
        <mxCell id="fYUXEFIVG2v1XULAEbU8-55" value="分支机构" style="whiteSpace=wrap;html=1;rounded=1;" parent="1" vertex="1">
          <mxGeometry x="-540" y="320" width="120" height="60" as="geometry" />
        </mxCell>
        <mxCell id="fYUXEFIVG2v1XULAEbU8-58" value="" style="rounded=0;whiteSpace=wrap;html=1;textOpacity=0;labelPosition=left;verticalLabelPosition=top;align=right;verticalAlign=bottom;fillColor=none;" parent="1" vertex="1">
          <mxGeometry x="-560" y="280" width="290" height="170" as="geometry" />
        </mxCell>
        <mxCell id="fYUXEFIVG2v1XULAEbU8-62" value="图" style="rounded=0;whiteSpace=wrap;html=1;" parent="1" vertex="1">
          <mxGeometry x="-540" y="290" width="250" height="20" as="geometry" />
        </mxCell>
        <mxCell id="fYUXEFIVG2v1XULAEbU8-66" value="数据来源" style="swimlane;" parent="1" vertex="1">
          <mxGeometry x="-800" y="-900" width="200" height="1380" as="geometry" />
        </mxCell>
        <mxCell id="fYUXEFIVG2v1XULAEbU8-71" value="es" style="shape=cylinder3;whiteSpace=wrap;html=1;boundedLbl=1;backgroundOutline=1;size=15;" parent="fYUXEFIVG2v1XULAEbU8-66" vertex="1">
          <mxGeometry x="60" y="160" width="60" height="80" as="geometry" />
        </mxCell>
        <mxCell id="fYUXEFIVG2v1XULAEbU8-72" value="hbase" style="shape=cylinder3;whiteSpace=wrap;html=1;boundedLbl=1;backgroundOutline=1;size=15;" parent="fYUXEFIVG2v1XULAEbU8-66" vertex="1">
          <mxGeometry x="50" y="570" width="60" height="80" as="geometry" />
        </mxCell>
        <mxCell id="fYUXEFIVG2v1XULAEbU8-73" value="&lt;span style=&quot;color: rgb(50 , 50 , 50) ; font-size: 13px ; background-color: rgba(255 , 255 , 255 , 0.01)&quot;&gt;商安信数据字典v4.1&lt;/span&gt;" style="shape=cylinder3;whiteSpace=wrap;html=1;boundedLbl=1;backgroundOutline=1;size=15;" parent="fYUXEFIVG2v1XULAEbU8-66" vertex="1">
          <mxGeometry x="50" y="700" width="60" height="80" as="geometry" />
        </mxCell>
        <mxCell id="fYUXEFIVG2v1XULAEbU8-74" value="&lt;span style=&quot;color: rgb(50 , 50 , 50) ; font-size: 13px ; background-color: rgba(255 , 255 , 255 , 0.01)&quot;&gt;接口输出字典v1.0&lt;/span&gt;" style="shape=cylinder3;whiteSpace=wrap;html=1;boundedLbl=1;backgroundOutline=1;size=15;" parent="fYUXEFIVG2v1XULAEbU8-66" vertex="1">
          <mxGeometry x="50" y="780" width="60" height="80" as="geometry" />
        </mxCell>
        <mxCell id="fYUXEFIVG2v1XULAEbU8-75" value="&lt;span style=&quot;color: rgb(50 , 50 , 50) ; font-size: 13px ; background-color: rgba(255 , 255 , 255 , 0.01)&quot;&gt;3ACredit商安信 国际API文档 V1.0&lt;/span&gt;" style="shape=cylinder3;whiteSpace=wrap;html=1;boundedLbl=1;backgroundOutline=1;size=15;" parent="fYUXEFIVG2v1XULAEbU8-66" vertex="1">
          <mxGeometry x="50" y="1000" width="60" height="100" as="geometry" />
        </mxCell>
      </root>
    </mxGraphModel>
  </diagram>
</mxfile>
